# xmcd CD database file
#
# Track frame offsets:
#	150
#	17761
#	36871
#	56982
#	75660
#	94546
#	118956
#	142537
#	166975
#
# Disc length: 2484 seconds
#
# Revision: 0
# Processed by: cddbd v1.5.2PL0 Copyright (c) Steve Scherf et al.
# Submitted via: CDex 1.70beta2
#
DISCID=6c09b209
DTITLE=SOUND HOLIC - TOHO PIANISM I
DYEAR=2009
DGENRE=東方アレンジ
TTITLE0=｢地霊達の起床｣
TTITLE1=｢地霊達の帰宅｣ ｢エネルギー黎明 ～ Future Dream...｣
TTITLE2=｢渡る者の途絶えた橋｣ ｢緑眼のジェラシー｣
TTITLE3=｢廃獄ララバイ｣ ｢死体旅行 ～ Be of good cheer!｣
TTITLE4=｢業火マントル｣ ｢霊知の太陽信仰 ～ Nuclear Fusion｣
TTITLE5=｢暗闇の風穴｣ ｢封じられた妖怪 ～ Lost Place｣
TTITLE6=｢ハートフェルトファンシー｣ ｢少女さとり ～ 3rd eye｣
TTITLE7=｢旧地獄街道を行く｣ ｢華のさかづき大江山｣
TTITLE8=｢ラストリモート｣ ｢ハルトマンの妖怪少女｣
EXTD=YEAR: 2009
EXTT0=
EXTT1=
EXTT2=
EXTT3=
EXTT4=
EXTT5=
EXTT6=
EXTT7=
EXTT8=
PLAYORDER=
